<svg width="48" height="48" viewBox="0 0 48 48" fill="none" xmlns="http://www.w3.org/2000/svg">
<g clip-path="url(#clip0_3_219)">
<mask id="mask0_3_219" style="mask-type:alpha" maskUnits="userSpaceOnUse" x="0" y="0" width="48" height="48">
<path d="M48 24C48 10.7452 37.2548 0 24 0C10.7452 0 0 10.7452 0 24C0 37.2548 10.7452 48 24 48C37.2548 48 48 37.2548 48 24Z" fill="white"/>
</mask>
<g mask="url(#mask0_3_219)">
<path d="M48 0H0V48H48V0Z" fill="#45AFEA"/>
<path d="M58.6451 22.8079C53.6583 9.10687 38.5089 2.04257 24.8079 7.02933C11.1069 12.0161 4.04257 27.1655 9.02933 40.8665C14.0161 54.5676 29.1655 61.6319 42.8666 56.6451C56.5676 51.6583 63.6319 36.5089 58.6451 22.8079Z" fill="#98DAFF"/>
<path d="M14.6667 22.6667C17.3334 24 20 24 22.6667 22.6667" stroke="#064061" stroke-width="2.22222" stroke-linecap="round"/>
<path d="M15.3333 16C15.3333 15.2636 14.8856 14.6667 14.3333 14.6667C13.7811 14.6667 13.3333 15.2636 13.3333 16C13.3333 16.7364 13.7811 17.3333 14.3333 17.3333C14.8856 17.3333 15.3333 16.7364 15.3333 16Z" fill="#064061"/>
<path d="M23.3333 16C23.3333 15.2636 22.8856 14.6667 22.3333 14.6667C21.7811 14.6667 21.3333 15.2636 21.3333 16C21.3333 16.7364 21.7811 17.3333 22.3333 17.3333C22.8856 17.3333 23.3333 16.7364 23.3333 16Z" fill="#064061"/>
</g>
</g>
<defs>
<clipPath id="clip0_3_219">
<rect width="48" height="48" fill="white"/>
</clipPath>
</defs>
</svg>
